/* XPM */
static char * font_xpm[] = {
"26 26 3 1",
" 	c #None",
".	c #000000000000",
"X	c #000000000000",
"                          ",
"                          ",
"                          ",
"            .             ",
"           ...            ",
"           ...            ",
"          .....           ",
"          .....           ",
"         .. ....          ",
"         .. ....          ",
"        ..   ....         ",
"        .........         ",
"       ...........        ",
"       ..     ....        ",
"      ..       ....       ",
"      ..       ....       ",
"    .....     .......     ",
"                          ",
"                          ",
"                          ",
"     XXXXXXXXXXXXXXXX     ",
"     XXXXXXXXXXXXXXXX     ",
"     XXXXXXXXXXXXXXXX     ",
"     XXXXXXXXXXXXXXXX     ",
"                          ",
"                          ",
"                          "};
