/* XPM */
static const char * canbreak_xpm[] = {
"14 14 3 1",
" 	c None",
".	c gray",
"X	c white",
"              ",
"   .......    ",
"  .........   ",
" ...........  ",
" ...XXXXX.... ",
" ...XXXXX.... ",
" ...XXXXX.... ",
" ...XXXXX.... ",
" ...XXXXX.... ",
" ...........  ",
"  .........   ",
"   .......    ",
"              ",
"              "};
