/* XPM */
static const char * pc_xpm[] = {
"14 14 2 1",
" 	c None",
".	c #009B1C",
"              ",
"              ",
"       .      ",
"       ..     ",
"        ..    ",
"        ...   ",
"............  ",
"............. ",
"............  ",
"        ...   ",
"        ..    ",
"       ..     ",
"       .      ",
"              "};
