/* XPM */
static const char * startp_xpm[] = {
"14 14 2 1",
" 	c #0000FF",
".	c None",
"  ............",
"   ...........",
".   ..........",
"..   .........",
"...   ........",
"....   .......",
".....   ......",
".....   ......",
"....   .......",
"...   ........",
"..   .........",
".   ..........",
"   ...........",
"  ............"};
