/* XPM */
static const char * break_xpm[] = {
"14 14 3 1",
" 	c None",
".	c red",
"X	c white",
"    .....     ",
"   .......    ",
"  .........   ",
" .....X.....  ",
"....XXXXX.... ",
"....XXXXX.... ",
"...XXXXXXX... ",
"....XXXXX.... ",
"....XXXXX.... ",
" .....X.....  ",
"  .........   ",
"   .......    ",
"    .....     ",
"              "};
