/* XPM */
static const char * stopp_xpm[] = {
"14 14 2 1",
" 	c None",
". 	c #0000FF",
"            ..",
"           ...",
"          ... ",
"         ...  ",
"        ...   ",
"       ...    ",
"      ...     ",
"      ...     ",
"       ...    ",
"        ...   ",
"         ...  ",
"          ... ",
"           ...",
"            .."};
